<?xml version="1.0" encoding="UTF-8"?>
<svg id="icon-calendar" width="200px" height="200px" viewBox="0 0 200 200" version="1.1" xmlns="http://www.w3.org/2000/svg" xmlns:xlink="http://www.w3.org/1999/xlink">
    <g transform="translate(0.000000, 10.000000)" fill-rule="nonzero">
        <g id="sheet" fill="#00DBAD">
            <path d="M18.75,30.3529412 C15.2982203,30.3529412 12.5,33.1511615 12.5,36.6029412 L12.5,160.5 C12.5,163.951779 15.2982203,166.75 18.75,166.75 L181.25,166.75 C184.701779,166.75 187.5,163.951779 187.5,160.5 L187.5,36.6029412 C187.5,33.1511615 184.701779,30.3529412 181.25,30.3529412 L18.75,30.3529412 Z M18.75,17.8529412 L181.25,17.8529412 C191.605339,17.8529412 200,26.2476021 200,36.6029412 L200,160.5 C200,170.855339 191.605339,179.25 181.25,179.25 L18.75,179.25 C8.39466094,179.25 1.38777878e-15,170.855339 0,160.5 L0,36.6029412 C-1.38777878e-15,26.2476021 8.39466094,17.8529412 18.75,17.8529412 Z" id="Rectangle-12"></path>
            <path d="M51.8092105,6.73161763 C51.8092105,3.27983796 54.6074308,0.48161765 58.0592105,0.48161765 C61.5109902,0.48161765 64.3092106,3.27983796 64.3092106,6.73161763 L64.3092106,41.4742647 C64.3092106,44.9260444 61.5109902,47.7242647 58.0592105,47.7242647 C54.6074308,47.7242647 51.8092105,44.9260444 51.8092105,41.4742647 L51.8092105,6.73161763 Z" id="Line-2"></path>
            <path d="M135.690789,6.73161763 C135.690789,3.27983796 138.48901,0.48161765 141.940789,0.48161765 C145.392569,0.48161765 148.190789,3.27983796 148.190789,6.73161763 L148.190789,41.4742647 C148.190789,44.9260444 145.392569,47.7242647 141.940789,47.7242647 C138.48901,47.7242647 135.690789,44.9260444 135.690789,41.4742647 L135.690789,6.73161763 Z" id="Line-2-Copy"></path>
            <path d="M11.1842105,72.5404413 C7.73243081,72.5404413 4.93421053,69.7422206 4.93421053,66.2904413 C4.93421053,62.8386612 7.73243081,60.0404412 11.1842105,60.0404412 L188.815789,60.0404412 C192.267569,60.0404412 195.065789,62.8386612 195.065789,66.2904413 C195.065789,69.7422206 192.267569,72.5404413 188.815789,72.5404413 L11.1842105,72.5404413 Z" id="Line-3"></path>
        </g>
        <g id="days" transform="translate(25.000000, 83.250000)" fill="#EEEEEE">
            <rect id="Rectangle-13" x="0.986842106" y="0.411764706" width="29.6052632" height="29.7794118" rx="1"></rect>
            <rect id="Rectangle-13-Copy-4" x="0.986842106" y="40.1176471" width="29.6052632" height="29.7794118" rx="1"></rect>
            <rect id="Rectangle-13-Copy" x="40.4605263" y="0.411764706" width="29.6052632" height="29.7794118" rx="1"></rect>
            <rect id="Rectangle-13-Copy-5" x="40.4605263" y="40.1176471" width="29.6052632" height="29.7794118" rx="1"></rect>
            <rect id="Rectangle-13-Copy-2" x="79.9342106" y="0.411764706" width="29.6052632" height="29.7794118" rx="1"></rect>
            <rect id="Rectangle-13-Copy-6" x="79.9342106" y="40.1176471" width="29.6052632" height="29.7794118" rx="1"></rect>
            <rect id="Rectangle-13-Copy-3" x="119.407895" y="0.411764706" width="29.6052632" height="29.7794118" rx="1"></rect>
            <rect id="Rectangle-13-Copy-7" x="119.407895" y="40.1176471" width="29.6052632" height="29.7794118" rx="1"></rect>
        </g>
    </g>
</svg>