<?xml version="1.0" encoding="UTF-8"?>
<svg id="icon-camera" width="200px" height="200px" viewBox="0 0 200 200" version="1.1" xmlns="http://www.w3.org/2000/svg" xmlns:xlink="http://www.w3.org/1999/xlink">
    <g transform="translate(0.000000, 22.000000)" fill-rule="nonzero">
        <path d="M74.3427694,12.5 L70.0201925,27.7789942 C69.25891,30.4698953 66.8027481,32.3275862 64.0062327,32.3275862 L18.75,32.3275862 C15.2982203,32.3275862 12.5,35.1258065 12.5,38.5775862 L12.5,137.5 C12.5,140.951779 15.2982203,143.75 18.75,143.75 L181.25,143.75 C184.701779,143.75 187.5,140.951779 187.5,137.5 L187.5,38.5775862 C187.5,35.1258065 184.701779,32.3275862 181.25,32.3275862 L135.993767,32.3275862 C133.197252,32.3275862 130.74109,30.4698953 129.979807,27.7789942 L125.657231,12.5 L74.3427694,12.5 Z M59.2791142,19.8275862 L63.6016913,4.54859193 C64.3629736,1.85769098 66.8191356,0 69.6156512,0 L130.384349,0 C133.180864,0 135.637026,1.85769098 136.398309,4.54859193 L140.720886,19.8275862 L181.25,19.8275862 C191.605339,19.8275862 200,28.2222471 200,38.5775862 L200,137.5 C200,147.855339 191.605339,156.25 181.25,156.25 L18.75,156.25 C8.39466094,156.25 0,147.855339 0,137.5 L0,38.5775862 C0,28.2222471 8.39466094,19.8275862 18.75,19.8275862 L59.2791142,19.8275862 Z" id="camera-body" fill="#00DBAD"></path>
        <path d="M100,131.465518 C74.7410725,131.465518 54.2763158,110.90667 54.2763158,85.560345 C54.2763158,60.2140198 74.7410725,39.6551724 100,39.6551724 C125.258927,39.6551724 145.723684,60.2140198 145.723684,85.560345 C145.723684,110.90667 125.258927,131.465518 100,131.465518 Z M100,118.965518 C118.3425,118.965518 133.223684,104.015914 133.223684,85.560345 C133.223684,67.1047759 118.3425,52.1551724 100,52.1551724 C81.6575,52.1551724 66.7763158,67.1047759 66.7763158,85.560345 C66.7763158,104.015914 81.6575,118.965518 100,118.965518 Z" id="lens" fill="#00DBAD"></path>
        <ellipse id="shutter" fill="#EEEEEE" cx="176.5" cy="45.529885" rx="6.5" ry="6.52988504"></ellipse>
    </g>
</svg>