<?xml version="1.0" encoding="UTF-8"?>
<svg id="icon-image" width="200px" height="200px" viewBox="0 0 200 200" version="1.1" xmlns="http://www.w3.org/2000/svg" xmlns:xlink="http://www.w3.org/1999/xlink">
    <g transform="translate(0.000000, 21.000000)" fill="#00DBAD" fill-rule="nonzero">
        <path d="M5.43995648,157.796681 C2.43555148,157.796681 0,155.36113 0,152.356725 L0,5.49966001 C0,2.49525497 2.43555148,0.0597035088 5.43995648,0.0597035088 L193.67333,0.0597035088 C196.677735,0.0597035088 199.113287,2.49525497 199.113287,5.49966001 L199.113287,152.356725 C199.113287,155.36113 196.677735,157.796681 193.67333,157.796681 L5.43995648,157.796681 Z M10.8799129,146.916769 L188.233374,146.916769 L188.233374,10.9396164 L10.8799129,10.9396164 L10.8799129,146.916769 Z" id="frame"></path>
        <g id="mountains" transform="translate(30.000000, 51.000000)">
            <path d="M25.9510404,35.0784715 C28.1161431,32.0157756 32.6639467,32.0157756 34.8344893,35.0784715 L47.977424,53.6613626 L65.5593633,78.5165241 L30.3900449,78.5165241 L5.73616213,78.5165241 C1.32435738,78.5165241 -1.25418194,73.5389635 1.2971576,69.9377127 L12.8081056,53.6613626 L25.9510404,35.0784715 Z" id="Shape"></path>
            <path d="M81.3548209,2.66721053 C83.519924,-0.395484649 88.0677273,-0.395484649 90.2382697,2.66721053 L114.837754,37.4557325 L137.816129,69.9377127 C140.367469,73.5389635 137.78893,78.5165241 133.377125,78.5165241 L85.7938253,78.5165241 L27.7059703,78.5165241 L56.7498977,37.4557325 L81.3548209,2.66721053 Z" id="Shape"></path>
        </g>
    </g>
</svg>